<svg id="svg" version="1.1" xmlns="http://www.w3.org/2000/svg" xmlns:xlink="http://www.w3.org/1999/xlink" width="400" height="400" viewBox="0, 0, 400,400"><g id="svgg"><path id="path0" d="M185.600 15.589 C 183.510 15.763,181.260 16.092,180.600 16.320 C 179.940 16.548,177.510 16.830,175.200 16.947 C 172.890 17.064,170.100 17.437,169.000 17.776 C 167.900 18.114,165.650 18.401,164.000 18.413 C 162.303 18.426,160.305 18.704,159.400 19.054 C 158.520 19.394,156.845 19.822,155.678 20.005 C 154.511 20.187,153.122 20.621,152.592 20.969 C 152.062 21.316,151.030 21.600,150.299 21.600 C 149.567 21.600,148.263 21.960,147.400 22.400 C 146.537 22.840,145.371 23.200,144.809 23.200 C 144.248 23.200,143.116 23.560,142.296 24.000 C 141.475 24.440,140.366 24.800,139.832 24.800 C 138.819 24.800,132.882 27.016,132.220 27.641 C 132.011 27.839,131.564 28.000,131.226 28.000 C 130.523 28.000,130.231 28.137,116.200 35.042 C 110.480 37.857,105.350 40.461,104.800 40.828 C 104.250 41.195,102.450 42.327,100.800 43.343 C 96.648 45.899,92.395 48.961,89.039 51.810 C 87.477 53.135,84.850 55.325,83.200 56.677 C 79.929 59.357,68.843 70.124,66.967 72.442 C 66.325 73.236,65.440 74.401,65.000 75.032 C 64.560 75.663,62.849 77.714,61.197 79.590 C 59.546 81.465,57.515 83.990,56.684 85.200 C 55.853 86.410,54.089 88.840,52.763 90.600 C 51.437 92.360,49.997 94.520,49.562 95.400 C 48.796 96.952,47.254 99.307,44.849 102.600 C 44.206 103.480,43.395 104.830,43.048 105.600 C 42.700 106.370,42.232 107.270,42.008 107.600 C 41.783 107.930,41.420 108.650,41.201 109.200 C 40.981 109.750,40.629 110.470,40.417 110.800 C 39.594 112.084,36.443 119.063,36.174 120.200 C 36.018 120.860,35.719 121.617,35.511 121.881 C 35.303 122.146,34.888 123.136,34.590 124.081 C 34.291 125.027,33.570 127.060,32.989 128.600 C 32.407 130.140,31.692 132.210,31.401 133.200 C 31.110 134.190,30.585 135.669,30.236 136.487 C 29.886 137.305,29.600 138.320,29.600 138.743 C 29.600 139.167,29.244 140.297,28.809 141.256 C 28.374 142.215,28.014 143.565,28.009 144.256 C 28.004 144.947,27.644 146.297,27.209 147.256 C 26.774 148.215,26.408 149.810,26.396 150.800 C 26.384 151.790,26.026 153.590,25.600 154.800 C 25.159 156.053,24.815 158.120,24.800 159.600 C 24.785 161.080,24.441 163.147,24.000 164.400 C 23.563 165.641,23.220 167.686,23.213 169.092 C 23.206 170.519,22.901 172.314,22.500 173.292 C 21.429 175.905,21.429 218.980,22.500 221.349 C 22.885 222.201,23.200 223.580,23.200 224.413 C 23.200 225.247,23.558 227.070,23.995 228.464 C 24.432 229.859,24.792 231.673,24.795 232.496 C 24.798 233.318,25.160 234.938,25.600 236.096 C 26.040 237.253,26.400 238.778,26.400 239.485 C 26.400 240.192,26.742 241.722,27.160 242.885 C 27.578 244.048,28.017 245.681,28.137 246.512 C 28.256 247.344,28.634 248.587,28.977 249.274 C 29.320 249.961,29.600 251.029,29.600 251.646 C 29.600 252.264,29.949 253.722,30.377 254.885 C 30.804 256.048,31.272 257.669,31.418 258.486 C 31.564 259.303,31.935 260.180,32.242 260.435 C 32.549 260.690,32.800 261.168,32.800 261.499 C 32.800 262.030,33.768 264.525,35.400 268.200 C 35.693 268.860,36.050 269.940,36.194 270.600 C 36.500 272.014,41.243 281.570,42.295 282.895 C 42.515 283.173,42.913 284.075,43.179 284.900 C 43.445 285.725,43.807 286.400,43.984 286.400 C 44.162 286.400,44.416 286.715,44.550 287.100 C 44.806 287.835,46.158 290.304,47.234 292.000 C 47.583 292.550,48.655 294.260,49.616 295.800 C 50.578 297.340,52.023 299.410,52.828 300.400 C 53.634 301.390,54.689 302.920,55.173 303.800 C 56.987 307.096,58.236 309.107,59.414 310.630 C 60.081 311.494,61.145 312.971,61.778 313.914 C 63.296 316.176,67.462 320.045,69.431 321.022 C 70.914 321.758,71.808 321.794,85.800 321.681 C 101.854 321.553,102.530 321.469,104.374 319.368 C 107.023 316.352,106.405 314.819,100.209 309.034 C 97.649 306.644,94.844 303.643,93.978 302.367 C 92.386 300.024,91.919 299.588,86.275 295.188 C 84.202 293.571,83.195 292.524,83.282 292.076 C 83.420 291.366,83.204 291.375,92.600 291.652 C 94.140 291.698,97.290 291.523,99.600 291.263 C 109.658 290.133,117.200 291.475,117.200 294.394 C 117.200 294.744,117.560 295.737,118.000 296.600 C 118.440 297.463,118.800 298.502,118.800 298.909 C 118.800 299.562,119.393 301.046,121.394 305.400 C 121.697 306.060,122.073 307.050,122.229 307.600 C 122.939 310.105,126.753 313.908,130.243 315.591 L 132.842 316.845 141.216 316.722 L 149.590 316.600 151.281 314.908 C 153.417 312.771,153.921 308.971,152.475 305.917 C 152.027 304.973,151.386 303.526,151.051 302.701 C 150.716 301.877,149.180 299.870,147.638 298.241 C 142.956 293.294,143.222 292.306,149.216 292.367 C 151.923 292.395,154.114 292.185,155.663 291.750 C 157.573 291.214,158.737 291.155,161.905 291.433 C 164.047 291.620,169.670 291.692,174.400 291.593 C 190.527 291.254,215.778 291.445,227.744 291.998 C 237.575 292.451,240.478 292.458,244.144 292.036 C 250.407 291.314,258.542 290.837,258.905 291.170 C 259.497 291.713,257.225 293.299,255.355 293.648 C 254.313 293.843,253.177 294.257,252.830 294.570 C 252.484 294.882,251.718 295.258,251.129 295.405 C 250.541 295.552,249.748 296.016,249.367 296.436 C 248.987 296.856,248.529 297.200,248.350 297.200 C 248.171 297.200,246.637 298.106,244.942 299.213 C 243.246 300.319,239.236 302.492,236.030 304.041 C 232.823 305.589,228.753 307.564,226.985 308.428 C 225.216 309.293,223.556 310.000,223.295 310.000 C 222.786 310.000,219.922 311.211,217.521 312.442 C 216.707 312.859,215.729 313.200,215.347 313.200 C 214.965 313.200,213.921 313.526,213.026 313.925 C 210.199 315.184,207.468 316.061,205.321 316.399 C 204.177 316.578,202.832 317.012,202.332 317.363 C 201.831 317.713,201.050 318.000,200.596 318.000 C 200.141 318.000,199.063 318.360,198.200 318.800 C 197.337 319.240,196.084 319.604,195.415 319.609 C 194.747 319.614,193.415 319.974,192.456 320.409 C 191.497 320.844,190.147 321.204,189.456 321.209 C 188.765 321.214,187.415 321.574,186.456 322.009 C 185.477 322.453,183.851 322.800,182.746 322.800 C 181.665 322.800,179.756 323.160,178.504 323.600 C 177.252 324.040,175.231 324.408,174.014 324.418 C 172.796 324.427,171.080 324.715,170.200 325.056 C 169.320 325.398,167.603 325.816,166.383 325.985 C 165.164 326.155,163.634 326.565,162.983 326.898 C 162.283 327.256,160.004 327.618,157.400 327.784 C 154.980 327.939,152.280 328.250,151.400 328.475 C 150.520 328.700,147.650 329.040,145.021 329.230 C 142.393 329.420,139.333 329.843,138.221 330.171 C 136.975 330.539,133.899 330.827,130.200 330.923 C 125.916 331.034,123.742 331.262,122.600 331.722 C 121.439 332.190,118.641 332.471,112.400 332.749 C 107.598 332.963,103.270 333.345,102.600 333.613 C 101.821 333.924,98.943 334.088,94.400 334.079 C 84.888 334.061,84.731 334.113,82.741 337.942 C 81.433 340.459,83.401 344.297,87.388 347.006 C 88.495 347.758,90.840 349.446,92.600 350.759 C 94.360 352.071,97.510 354.181,99.600 355.447 C 101.690 356.713,104.056 358.255,104.858 358.875 C 105.659 359.494,106.453 360.000,106.621 360.000 C 106.789 360.000,107.843 360.691,108.963 361.535 C 115.269 366.287,125.545 367.681,131.687 364.617 C 132.367 364.277,133.936 364.000,135.174 364.000 C 136.413 364.000,138.410 363.720,139.613 363.377 C 140.816 363.034,143.330 362.510,145.200 362.213 C 147.070 361.915,149.140 361.491,149.800 361.269 C 150.460 361.048,152.630 360.766,154.622 360.643 C 156.613 360.520,159.021 360.145,159.972 359.810 C 160.923 359.474,162.359 359.200,163.163 359.200 C 163.968 359.200,165.610 358.916,166.813 358.568 C 168.016 358.221,170.473 357.693,172.273 357.396 C 174.074 357.100,175.874 356.685,176.273 356.474 C 176.673 356.264,178.170 355.959,179.600 355.798 C 181.030 355.636,183.062 355.165,184.115 354.752 C 185.168 354.338,186.633 354.000,187.371 354.000 C 188.109 354.000,189.497 353.644,190.456 353.209 C 191.415 352.774,192.792 352.414,193.516 352.409 C 194.240 352.404,195.538 352.040,196.400 351.600 C 197.262 351.160,198.560 350.796,199.284 350.791 C 200.008 350.786,201.385 350.426,202.344 349.991 C 203.303 349.556,204.565 349.200,205.150 349.200 C 205.734 349.200,206.884 348.840,207.704 348.400 C 208.525 347.960,209.605 347.600,210.104 347.600 C 210.604 347.600,211.684 347.240,212.504 346.800 C 213.325 346.360,214.500 346.000,215.114 346.000 C 215.728 346.000,216.937 345.640,217.800 345.200 C 218.663 344.760,219.877 344.400,220.497 344.400 C 221.118 344.400,222.295 344.113,223.113 343.763 C 223.931 343.413,225.447 342.868,226.483 342.553 C 227.518 342.237,228.474 341.804,228.606 341.590 C 228.739 341.375,229.154 341.200,229.530 341.200 C 229.905 341.200,230.884 340.840,231.704 340.400 C 232.525 339.960,233.418 339.600,233.688 339.600 C 233.958 339.600,236.344 338.528,238.990 337.219 C 241.635 335.909,245.330 334.215,247.200 333.454 C 252.155 331.439,262.983 325.754,266.853 323.136 C 268.694 321.891,271.100 320.384,272.200 319.787 C 278.002 316.640,281.425 314.434,283.848 312.279 C 285.142 311.129,286.963 309.672,287.896 309.042 C 288.829 308.412,291.799 305.823,294.496 303.290 C 297.193 300.756,300.373 297.963,301.562 297.084 C 304.647 294.800,311.367 288.479,314.312 285.090 C 317.407 281.528,317.377 281.567,318.005 280.375 C 318.288 279.839,319.568 278.273,320.851 276.895 C 322.133 275.517,323.935 273.357,324.855 272.095 C 325.774 270.833,327.487 268.779,328.661 267.532 C 331.601 264.408,332.282 262.076,331.178 258.909 C 330.420 256.735,324.647 253.200,321.856 253.200 C 321.323 253.200,320.103 252.844,319.144 252.409 C 314.595 250.345,307.364 252.971,305.403 257.400 C 304.709 258.967,302.212 261.600,301.420 261.600 C 300.238 261.600,301.035 257.828,303.034 253.963 C 303.329 253.393,303.697 252.133,303.851 251.163 C 304.005 250.194,304.458 248.680,304.857 247.800 C 305.275 246.879,305.586 245.250,305.591 243.961 C 305.596 242.671,305.888 241.146,306.281 240.361 C 306.716 239.491,307.019 237.701,307.123 235.400 C 307.214 233.371,307.615 230.802,308.042 229.513 C 308.603 227.820,308.800 226.071,308.800 222.784 C 308.800 218.725,308.889 218.190,309.838 216.571 L 310.876 214.800 313.406 214.800 C 314.797 214.800,317.035 215.082,318.379 215.426 C 320.595 215.994,321.187 215.994,324.759 215.426 C 328.746 214.792,356.281 214.472,357.767 215.043 C 358.710 215.404,358.608 219.023,357.600 221.000 C 357.160 221.863,356.800 223.231,356.800 224.041 C 356.800 224.850,356.444 226.297,356.009 227.256 C 355.574 228.215,355.214 229.774,355.209 230.720 C 355.204 231.666,354.915 232.991,354.566 233.665 C 354.218 234.339,353.843 235.905,353.734 237.145 C 353.624 238.385,353.189 240.243,352.767 241.274 C 352.345 242.305,352.000 243.521,352.000 243.976 C 352.000 244.431,351.640 245.475,351.200 246.296 C 350.760 247.116,350.400 248.363,350.400 249.066 C 350.400 249.768,350.160 250.582,349.867 250.875 C 349.575 251.168,349.206 251.946,349.049 252.604 C 348.725 253.956,347.432 257.398,346.335 259.826 C 345.931 260.721,345.600 261.644,345.600 261.877 C 345.600 262.111,345.348 262.511,345.039 262.767 C 344.731 263.023,344.357 263.720,344.208 264.316 C 344.059 264.912,343.703 265.670,343.416 266.000 C 343.129 266.330,342.758 267.050,342.591 267.600 C 342.086 269.268,338.829 275.961,337.459 278.147 C 335.296 281.600,335.202 281.762,334.622 283.015 C 333.592 285.242,329.988 290.490,326.400 294.988 C 321.385 301.273,318.423 304.857,316.791 306.612 C 315.763 307.719,314.456 309.339,313.889 310.212 C 312.269 312.703,308.160 316.817,303.860 320.252 C 301.694 321.984,298.724 324.354,297.260 325.519 C 295.797 326.685,293.340 328.713,291.800 330.025 C 290.260 331.338,288.433 332.724,287.740 333.106 C 287.047 333.488,285.697 334.332,284.740 334.982 C 283.267 335.983,279.862 338.200,272.400 343.015 C 270.678 344.127,265.199 347.200,264.939 347.200 C 264.704 347.200,260.417 349.123,259.600 349.595 C 257.890 350.583,251.668 353.570,250.800 353.820 C 250.250 353.978,249.445 354.354,249.011 354.654 C 248.577 354.954,247.767 355.201,247.211 355.202 C 246.655 355.204,245.725 355.453,245.145 355.755 C 244.565 356.058,243.172 356.611,242.050 356.983 C 240.928 357.356,239.907 357.827,239.781 358.031 C 239.656 358.234,239.268 358.400,238.920 358.400 C 238.572 358.400,237.548 358.733,236.644 359.140 C 234.149 360.264,231.208 361.229,229.139 361.603 C 228.115 361.788,226.729 362.223,226.058 362.570 C 225.388 362.916,224.336 363.204,223.720 363.209 C 223.104 363.214,221.815 363.574,220.856 364.009 C 219.897 364.444,218.727 364.804,218.256 364.809 C 217.785 364.814,216.615 365.174,215.656 365.609 C 214.697 366.044,213.527 366.408,213.056 366.418 C 212.585 366.427,211.480 366.716,210.600 367.060 C 209.720 367.404,207.533 367.836,205.739 368.021 C 203.946 368.205,201.809 368.636,200.990 368.978 C 200.057 369.368,198.286 369.600,196.238 369.600 C 194.443 369.600,191.990 369.883,190.787 370.229 C 189.584 370.575,187.283 371.025,185.673 371.229 C 184.063 371.434,182.363 371.806,181.895 372.056 C 179.603 373.283,172.532 374.050,160.800 374.345 C 147.835 374.672,147.028 374.825,145.807 377.187 C 144.345 380.014,146.385 383.858,149.754 384.625 C 150.388 384.769,151.648 385.224,152.554 385.635 C 153.459 386.046,154.945 386.386,155.856 386.391 C 156.767 386.396,158.297 386.756,159.256 387.191 C 160.215 387.626,161.578 387.986,162.285 387.991 C 162.992 387.996,164.432 388.335,165.485 388.744 C 166.538 389.154,168.335 389.609,169.477 389.755 C 170.619 389.902,172.200 390.292,172.990 390.622 C 177.218 392.388,224.100 392.433,229.009 390.676 C 229.894 390.359,231.784 389.969,233.209 389.809 C 234.634 389.649,236.829 389.177,238.087 388.759 C 239.345 388.342,241.055 387.996,241.887 387.991 C 242.719 387.986,244.185 387.626,245.144 387.191 C 246.103 386.756,247.401 386.400,248.029 386.400 C 248.657 386.400,250.084 386.040,251.200 385.600 C 252.316 385.160,253.811 384.800,254.521 384.800 C 255.231 384.800,256.484 384.440,257.304 384.000 C 258.125 383.560,259.183 383.200,259.655 383.200 C 260.126 383.200,261.252 382.859,262.156 382.442 C 267.322 380.060,271.314 378.400,271.878 378.400 C 272.499 378.400,276.147 376.863,277.800 375.905 C 280.476 374.355,285.022 371.985,285.747 371.761 C 286.719 371.462,291.893 368.545,292.800 367.786 C 293.130 367.509,294.795 366.557,296.500 365.669 C 298.205 364.781,300.185 363.638,300.900 363.128 C 301.615 362.619,302.688 361.931,303.284 361.601 C 305.662 360.282,308.199 358.498,310.540 356.497 C 311.893 355.340,314.350 353.368,316.000 352.113 C 319.755 349.258,339.543 329.591,340.947 327.318 C 341.519 326.393,343.160 324.184,344.593 322.408 C 346.027 320.632,347.200 319.037,347.200 318.862 C 347.200 318.687,347.760 317.927,348.444 317.172 C 350.267 315.163,354.690 308.407,356.762 304.468 C 357.071 303.881,357.439 303.310,357.581 303.200 C 358.222 302.703,359.699 300.243,361.859 296.077 C 363.146 293.593,364.684 290.714,365.276 289.680 C 365.868 288.646,366.544 287.350,366.779 286.800 C 367.013 286.250,367.474 285.322,367.803 284.738 C 368.131 284.154,368.406 283.434,368.413 283.138 C 368.419 282.842,368.868 281.700,369.409 280.600 C 369.950 279.500,370.394 278.321,370.396 277.980 C 370.398 277.639,370.561 277.189,370.759 276.980 C 371.287 276.420,373.600 270.454,373.600 269.650 C 373.600 269.270,373.765 268.789,373.966 268.580 C 374.167 268.371,374.962 266.580,375.734 264.600 C 376.505 262.620,377.419 260.460,377.765 259.800 C 378.112 259.140,378.396 258.233,378.398 257.785 C 378.399 257.336,378.760 256.263,379.200 255.400 C 379.640 254.537,380.000 253.277,380.000 252.600 C 380.000 251.923,380.360 250.663,380.800 249.800 C 381.240 248.937,381.600 247.543,381.600 246.701 C 381.600 245.860,381.894 244.724,382.253 244.176 C 382.671 243.538,383.012 241.780,383.201 239.290 C 383.364 237.150,383.790 234.731,384.148 233.913 C 384.558 232.978,384.800 231.326,384.800 229.462 C 384.800 227.555,385.041 225.945,385.477 224.949 C 385.949 223.867,386.238 221.651,386.435 217.600 C 386.590 214.410,387.002 210.630,387.351 209.200 C 388.244 205.540,388.218 186.470,387.316 183.441 C 386.982 182.318,386.584 179.150,386.432 176.400 C 386.240 172.908,385.952 171.014,385.478 170.120 C 385.026 169.266,384.800 167.901,384.800 166.024 C 384.800 164.177,384.525 162.485,384.000 161.104 C 383.504 159.800,383.197 158.012,383.191 156.400 C 383.185 154.680,382.915 153.210,382.391 152.056 C 381.956 151.097,381.600 149.655,381.600 148.850 C 381.600 148.046,381.266 146.761,380.857 145.994 C 380.448 145.227,379.991 143.769,379.841 142.754 C 379.690 141.739,379.310 140.569,378.996 140.154 C 378.682 139.739,378.420 138.853,378.413 138.185 C 378.406 137.516,378.040 136.263,377.600 135.400 C 377.160 134.537,376.799 133.644,376.798 133.415 C 376.796 133.187,376.512 132.460,376.165 131.800 C 375.819 131.140,374.903 128.980,374.129 127.000 C 373.355 125.020,372.584 123.220,372.416 123.000 C 372.248 122.780,371.982 122.060,371.824 121.400 C 371.533 120.179,371.281 119.557,369.439 115.525 C 368.868 114.273,368.400 113.086,368.400 112.887 C 368.400 112.687,368.040 112.198,367.600 111.800 C 367.160 111.402,366.800 110.858,366.800 110.592 C 366.800 110.326,366.461 109.677,366.046 109.150 C 365.158 108.020,363.459 105.039,361.174 100.600 C 358.201 94.823,357.294 93.399,355.113 91.077 C 354.453 90.375,353.312 88.878,352.577 87.751 C 351.842 86.624,350.710 85.172,350.061 84.523 C 349.413 83.874,348.241 82.341,347.457 81.117 C 346.674 79.892,345.796 78.645,345.507 78.345 C 345.217 78.045,343.561 76.180,341.826 74.200 C 336.863 68.537,328.329 60.488,323.800 57.199 C 322.480 56.241,320.050 54.203,318.400 52.670 C 316.750 51.137,314.680 49.418,313.800 48.850 C 312.920 48.282,311.279 47.093,310.153 46.208 C 308.295 44.748,306.793 43.742,302.976 41.400 C 299.865 39.492,297.187 38.000,296.873 38.000 C 296.686 38.000,294.271 36.875,291.507 35.500 C 286.654 33.086,284.752 32.194,280.700 30.428 C 279.655 29.973,278.023 29.240,277.074 28.800 C 276.124 28.360,275.080 28.000,274.754 28.000 C 274.427 28.000,273.989 27.839,273.780 27.641 C 273.222 27.114,267.255 24.800,266.454 24.800 C 266.077 24.800,265.063 24.440,264.200 24.000 C 263.337 23.560,262.149 23.200,261.559 23.200 C 260.970 23.200,259.703 22.844,258.744 22.409 C 257.785 21.974,256.455 21.614,255.789 21.609 C 255.123 21.604,254.162 21.308,253.653 20.952 C 253.144 20.596,251.709 20.163,250.464 19.991 C 249.219 19.818,247.480 19.398,246.600 19.056 C 245.720 18.715,243.869 18.427,242.487 18.418 C 241.105 18.408,239.305 18.112,238.487 17.759 C 237.508 17.337,235.020 17.013,231.200 16.809 C 228.010 16.639,224.770 16.279,224.000 16.010 C 222.326 15.424,191.608 15.088,185.600 15.589 M189.371 45.429 C 190.194 46.252,190.164 46.967,189.200 49.504 C 188.253 51.996,187.938 102.207,188.843 106.427 C 189.665 110.257,187.092 111.651,182.638 109.790 C 180.770 109.009,149.771 109.962,143.153 111.004 C 140.847 111.366,140.668 111.086,141.469 108.364 C 142.325 105.455,142.184 105.757,144.168 102.600 C 145.136 101.060,146.491 98.630,147.180 97.200 C 147.868 95.770,148.590 94.330,148.784 94.000 C 148.978 93.670,149.735 92.230,150.465 90.800 C 151.196 89.370,152.334 87.390,152.995 86.400 C 154.214 84.573,155.135 83.008,156.056 81.200 C 156.336 80.650,157.113 79.493,157.782 78.629 C 158.452 77.764,159.360 76.482,159.800 75.779 C 161.025 73.823,164.054 69.681,165.450 68.056 C 166.138 67.255,167.236 65.752,167.890 64.716 C 170.783 60.136,183.275 47.270,186.531 45.517 C 188.126 44.658,188.586 44.644,189.371 45.429 M224.357 45.819 C 225.204 46.379,226.438 47.504,227.100 48.319 C 227.762 49.134,229.767 51.395,231.556 53.343 C 234.302 56.336,237.351 60.338,239.000 63.117 C 239.705 64.305,240.831 65.763,242.153 67.200 C 242.861 67.970,244.178 69.680,245.080 71.000 C 245.982 72.320,247.076 73.774,247.511 74.231 C 247.946 74.688,248.439 75.498,248.606 76.031 C 248.773 76.564,249.245 77.429,249.655 77.954 C 250.065 78.479,250.400 79.086,250.400 79.304 C 250.400 79.708,252.953 83.800,254.329 85.600 C 254.749 86.150,255.938 88.220,256.970 90.200 C 258.002 92.180,259.312 94.610,259.880 95.600 C 260.840 97.273,262.983 101.196,265.389 105.687 C 267.662 109.928,266.049 111.511,261.200 109.800 C 258.770 108.943,246.696 109.092,225.113 110.248 L 220.026 110.520 219.586 109.363 C 219.132 108.168,219.365 45.904,219.826 45.157 C 220.272 44.436,222.831 44.809,224.357 45.819 M146.400 54.661 C 146.400 54.805,145.545 55.852,144.500 56.987 C 140.365 61.479,135.763 66.928,135.088 68.132 C 134.697 68.829,134.024 69.940,133.594 70.600 C 133.164 71.260,132.617 72.250,132.378 72.799 C 132.140 73.349,131.670 74.101,131.335 74.472 C 131.000 74.842,130.428 75.686,130.063 76.347 C 129.099 78.096,126.570 82.235,124.777 85.000 C 122.930 87.848,120.400 92.849,120.400 93.653 C 120.400 93.966,120.153 94.577,119.851 95.011 C 119.549 95.445,119.172 96.430,119.012 97.200 C 118.852 97.970,118.466 99.004,118.153 99.497 C 117.841 99.990,117.472 101.222,117.333 102.233 C 116.393 109.098,115.835 109.398,104.000 109.411 C 98.170 109.417,90.661 109.712,85.463 110.140 C 80.658 110.536,76.632 110.766,76.517 110.651 C 76.074 110.207,78.224 106.580,80.314 104.246 C 81.519 102.901,82.946 101.104,83.486 100.254 C 84.026 99.404,85.134 97.964,85.948 97.054 C 86.762 96.144,88.218 94.332,89.182 93.027 C 91.582 89.781,98.602 82.745,100.800 81.383 C 101.790 80.770,103.680 79.239,105.000 77.982 C 106.320 76.725,108.390 75.044,109.600 74.248 C 110.810 73.452,113.330 71.726,115.200 70.413 C 117.070 69.101,119.140 67.724,119.800 67.354 C 120.460 66.984,121.720 66.104,122.600 65.398 C 123.480 64.692,126.000 63.245,128.200 62.183 C 130.400 61.120,133.721 59.340,135.581 58.226 C 140.920 55.026,146.400 53.221,146.400 54.661 M267.064 56.248 C 273.250 59.152,275.746 60.434,276.474 61.079 C 276.844 61.407,279.069 62.648,281.417 63.836 C 286.136 66.223,288.055 67.534,293.442 72.046 C 295.445 73.724,298.415 76.016,300.042 77.138 C 305.850 81.146,306.763 81.837,310.163 84.800 C 313.695 87.878,320.552 95.334,322.483 98.195 C 323.079 99.078,325.191 101.646,327.176 103.901 C 332.950 110.462,332.347 112.218,325.177 109.730 C 323.408 109.116,306.815 109.453,299.257 110.255 C 296.620 110.536,294.108 109.569,293.748 108.135 C 293.619 107.621,293.365 107.200,293.184 107.200 C 293.002 107.200,292.733 106.795,292.586 106.300 C 292.438 105.805,291.989 104.680,291.587 103.800 C 291.186 102.920,290.381 101.120,289.798 99.800 C 289.215 98.480,288.489 96.860,288.183 96.200 C 287.878 95.540,287.514 94.512,287.375 93.916 C 287.235 93.320,286.869 92.623,286.561 92.367 C 286.252 92.111,286.000 91.671,286.000 91.388 C 286.000 90.809,284.103 86.920,283.372 86.000 C 283.109 85.670,282.763 84.950,282.601 84.400 C 282.440 83.850,281.996 83.040,281.615 82.600 C 281.005 81.896,276.837 75.269,274.600 71.446 C 270.347 64.177,269.025 62.282,266.739 60.175 C 259.862 53.835,259.939 52.902,267.064 56.248 M188.648 140.514 C 188.821 140.687,188.920 141.497,188.869 142.314 C 188.817 143.131,188.685 153.160,188.574 164.600 C 188.348 188.048,188.524 186.851,185.465 185.729 C 183.691 185.078,166.310 185.241,159.600 185.972 C 157.935 186.153,151.669 186.116,145.519 185.888 C 135.544 185.518,134.266 185.543,132.706 186.138 C 130.122 187.125,126.154 187.036,125.588 185.978 C 125.055 184.981,125.748 179.741,126.693 177.627 C 127.109 176.696,127.364 174.505,127.484 170.827 C 127.597 167.373,127.881 164.822,128.263 163.811 C 128.594 162.937,129.015 160.687,129.199 158.811 C 129.383 156.935,129.819 154.416,130.167 153.213 C 130.515 152.010,130.800 149.760,130.800 148.213 C 130.800 145.319,131.916 141.412,132.977 140.590 C 133.610 140.100,188.159 140.026,188.648 140.514 M273.679 140.500 C 274.709 141.314,275.510 143.621,275.741 146.437 C 275.962 149.122,277.098 153.790,278.409 157.400 C 278.809 158.500,279.210 160.840,279.300 162.600 C 279.395 164.439,279.736 166.319,280.101 167.020 C 280.967 168.679,281.294 184.459,280.480 185.277 C 280.130 185.629,279.278 185.739,277.880 185.614 C 276.736 185.511,271.660 185.453,266.600 185.484 C 261.540 185.516,250.233 185.556,241.474 185.574 C 228.186 185.601,225.356 185.706,224.393 186.203 C 220.050 188.450,218.567 186.218,219.210 178.400 C 219.417 175.870,219.590 166.375,219.594 157.300 C 219.597 148.225,219.645 140.762,219.700 140.716 C 220.423 140.112,272.923 139.902,273.679 140.500 M347.968 141.055 C 348.995 142.182,351.508 149.164,351.993 152.236 C 352.169 153.357,352.603 154.833,352.957 155.517 C 353.311 156.201,353.608 157.534,353.618 158.480 C 353.627 159.426,353.915 160.920,354.256 161.800 C 354.598 162.680,355.016 164.397,355.185 165.617 C 355.355 166.836,355.787 168.402,356.147 169.097 C 356.564 169.904,356.800 171.347,356.800 173.093 C 356.800 174.596,357.091 176.810,357.446 178.013 C 359.506 184.988,357.864 188.049,353.108 186.100 C 351.097 185.276,331.664 185.151,326.600 185.929 C 325.060 186.166,320.729 186.484,316.976 186.635 L 310.151 186.911 309.439 185.047 C 308.881 183.586,308.818 182.925,309.144 181.988 C 309.887 179.858,310.105 176.287,309.572 175.000 C 309.298 174.340,308.951 171.460,308.801 168.600 C 308.611 164.983,308.325 163.010,307.864 162.120 C 307.450 161.322,307.200 159.885,307.200 158.307 C 307.200 156.914,306.915 154.790,306.568 153.587 C 306.220 152.384,305.797 150.195,305.629 148.723 C 305.460 147.250,305.015 145.576,304.639 145.003 C 304.197 144.329,303.999 143.367,304.078 142.280 L 304.200 140.600 309.800 140.393 C 324.091 139.864,347.248 140.266,347.968 141.055 M104.400 141.396 C 104.400 141.945,103.975 143.700,103.455 145.296 C 101.979 149.832,101.158 153.507,100.936 156.577 C 100.824 158.130,100.459 160.120,100.126 161.000 C 99.792 161.880,99.426 164.400,99.312 166.600 C 99.194 168.885,98.783 171.580,98.353 172.887 C 97.778 174.632,97.600 176.357,97.600 180.159 C 97.600 185.599,97.192 186.742,95.440 186.204 C 94.978 186.062,93.970 185.786,93.200 185.591 C 91.415 185.139,71.255 185.524,68.600 186.061 C 65.349 186.719,51.520 186.918,51.145 186.312 C 50.589 185.411,51.267 178.437,52.063 176.877 C 52.611 175.802,52.800 174.543,52.800 171.966 C 52.800 169.452,53.007 168.022,53.557 166.751 C 53.973 165.788,54.437 163.952,54.589 162.671 C 54.741 161.391,55.107 159.763,55.403 159.054 C 55.699 158.345,56.068 156.603,56.223 155.183 C 56.378 153.762,56.656 152.408,56.841 152.173 C 57.026 151.938,57.383 150.768,57.635 149.573 C 57.887 148.378,58.239 147.218,58.417 146.995 C 58.595 146.772,58.951 145.753,59.209 144.732 C 59.475 143.672,60.196 142.342,60.886 141.637 L 62.095 140.400 83.247 140.400 L 104.400 140.400 104.400 141.396 M58.662 215.400 C 60.472 216.156,62.782 216.156,65.600 215.400 C 67.339 214.933,70.718 214.808,81.720 214.805 C 99.208 214.799,98.567 214.573,98.114 220.567 C 97.958 222.624,98.080 224.135,98.522 225.647 C 98.869 226.831,99.246 229.240,99.360 231.000 C 99.475 232.760,99.844 235.100,100.180 236.200 C 100.516 237.300,100.793 239.286,100.796 240.613 C 100.798 241.940,101.079 244.010,101.421 245.213 C 101.762 246.416,102.226 248.300,102.450 249.400 C 102.675 250.500,103.092 251.763,103.377 252.206 C 103.662 252.649,104.026 253.639,104.187 254.406 C 104.347 255.173,104.704 256.160,104.981 256.600 C 105.740 257.809,106.116 261.037,105.608 261.985 C 104.929 263.254,68.574 263.263,66.793 261.995 C 65.433 261.026,63.252 257.677,62.369 255.200 C 60.741 250.634,57.600 241.108,57.600 240.735 C 57.600 240.507,57.342 239.754,57.026 239.060 C 56.027 236.865,55.164 233.138,54.634 228.721 C 54.332 226.213,53.847 224.025,53.460 223.435 C 52.484 221.946,52.514 215.806,53.500 215.232 C 54.529 214.633,57.020 214.714,58.662 215.400 M131.648 215.417 C 133.182 215.958,135.021 215.984,146.598 215.626 C 153.859 215.402,161.420 215.254,163.400 215.297 C 165.380 215.340,169.088 215.220,171.639 215.030 C 175.542 214.739,176.736 214.796,179.160 215.390 C 181.618 215.992,182.394 216.027,184.451 215.622 C 188.287 214.867,189.693 216.276,188.831 220.013 C 188.580 221.106,188.416 229.437,188.410 241.451 C 188.399 263.540,188.573 262.327,185.448 262.023 C 182.051 261.693,176.175 261.852,175.368 262.297 C 174.447 262.805,135.237 263.117,134.437 262.623 C 133.550 262.075,132.639 259.743,132.380 257.357 C 132.234 256.013,131.819 254.320,131.458 253.595 C 131.090 252.859,130.794 251.289,130.787 250.039 C 130.780 248.807,130.426 246.810,130.000 245.600 C 129.574 244.390,129.220 242.584,129.213 241.587 C 129.206 240.590,128.914 238.790,128.565 237.587 C 128.216 236.384,127.766 233.420,127.564 231.000 C 127.363 228.580,126.942 225.790,126.629 224.800 C 125.664 221.749,125.410 216.247,126.198 215.460 C 127.031 214.626,129.356 214.608,131.648 215.417 M226.754 215.187 C 230.246 216.188,244.531 216.350,259.200 215.554 C 270.603 214.935,279.489 214.685,280.559 214.954 C 282.239 215.376,282.949 218.391,281.786 220.165 C 281.448 220.680,281.016 222.429,280.826 224.051 C 280.635 225.673,280.191 227.669,279.840 228.487 C 279.488 229.305,279.200 231.015,279.200 232.287 C 279.200 233.596,278.868 235.474,278.435 236.612 C 278.014 237.718,277.538 240.146,277.375 242.006 C 277.213 243.867,276.855 245.931,276.579 246.594 C 276.304 247.258,275.948 248.880,275.789 250.200 C 275.630 251.520,275.331 252.925,275.124 253.322 C 274.918 253.719,274.572 255.138,274.357 256.475 C 273.308 262.987,273.922 262.860,243.872 262.763 C 220.419 262.687,220.342 262.684,219.805 261.843 C 219.372 261.166,219.267 257.288,219.271 242.178 C 219.274 231.826,219.151 222.345,218.997 221.111 C 218.347 215.916,221.337 213.633,226.754 215.187 " stroke="none" fill="#04246c" fill-rule="evenodd"></path></g></svg>